M48
; DRILL file {KiCad 8.0.0} date 2024-04-10T19:52:17+0100
; FORMAT={-:-/ absolute / metric / decimal}
; #@! TF.CreationDate,2024-04-10T19:52:17+01:00
; #@! TF.GenerationSoftware,Kicad,Pcbnew,8.0.0
; #@! TF.FileFunction,Plated,1,2,PTH
FMAT,2
METRIC
; #@! TA.AperFunction,Plated,PTH,ComponentDrill
T1C0.762
%
G90
G05
T1
X91.11Y-83.49
X91.11Y-86.03
X91.11Y-88.57
X91.11Y-91.11
X91.11Y-93.65
X91.11Y-96.19
X91.11Y-98.73
X91.11Y-101.27
X91.11Y-103.81
X91.11Y-106.35
X91.11Y-108.89
X91.11Y-111.43
X91.11Y-113.97
X91.11Y-116.51
X108.89Y-83.49
X108.89Y-86.03
X108.89Y-88.57
X108.89Y-91.11
X108.89Y-93.65
X108.89Y-96.19
X108.89Y-98.73
X108.89Y-101.27
X108.89Y-103.81
X108.89Y-106.35
X108.89Y-108.89
X108.89Y-111.43
X108.89Y-113.97
X108.89Y-116.51
M30
